<svg width="184" height="43" viewBox="0 0 184 43" fill="none" xmlns="http://www.w3.org/2000/svg">
<path d="M13.3564 33H12.3564V34H13.3564V33ZM13.3564 26.5303V25.5303H12.3564V26.5303H13.3564ZM21.3643 26.5303V27.5303H22.3643V26.5303H21.3643ZM21.3643 7.07227H22.3643V6.07227H21.3643V7.07227ZM13.3564 7.07227H12.3564V8.07227H13.3564V7.07227ZM13.3564 0.602539V-0.397461H12.3564V0.602539H13.3564ZM25.6855 0.602539L26.3913 -0.105898L26.0987 -0.397461H25.6855V0.602539ZM32.1797 7.07227H33.1797V6.65695L32.8855 6.36383L32.1797 7.07227ZM32.1797 26.5303L32.8855 27.2387L33.1797 26.9456V26.5303H32.1797ZM25.6855 33V34H26.0987L26.3913 33.7084L25.6855 33ZM0.856445 0.602539V-0.397461H-0.143555V0.602539H0.856445ZM11.6475 0.602539H12.6475V-0.397461H11.6475V0.602539ZM11.6475 33V34H12.6475V33H11.6475ZM0.856445 33H-0.143555V34H0.856445V33ZM14.3564 33V26.5303H12.3564V33H14.3564ZM13.3564 27.5303H21.3643V25.5303H13.3564V27.5303ZM22.3643 26.5303V7.07227H20.3643V26.5303H22.3643ZM21.3643 6.07227H13.3564V8.07227H21.3643V6.07227ZM14.3564 7.07227V0.602539H12.3564V7.07227H14.3564ZM13.3564 1.60254H25.6855V-0.397461H13.3564V1.60254ZM24.9798 1.31098L31.4739 7.7807L32.8855 6.36383L26.3913 -0.105898L24.9798 1.31098ZM31.1797 7.07227V26.5303H33.1797V7.07227H31.1797ZM31.4739 25.8218L24.9798 32.2916L26.3913 33.7084L32.8855 27.2387L31.4739 25.8218ZM25.6855 32H13.3564V34H25.6855V32ZM0.856445 1.60254H11.6475V-0.397461H0.856445V1.60254ZM10.6475 0.602539V33H12.6475V0.602539H10.6475ZM11.6475 32H0.856445V34H11.6475V32ZM1.85645 33V0.602539H-0.143555V33H1.85645ZM58.4082 33H57.4082V34H58.4082V33ZM58.4082 13.542H59.4082V12.542H58.4082V13.542ZM43.0518 13.542H42.0518V14.542H43.0518V13.542ZM43.0518 10.3193L42.3447 9.61223L42.0518 9.90512V10.3193H43.0518ZM46.2988 7.07227V6.07227H45.8846L45.5917 6.36516L46.2988 7.07227ZM62.4854 7.07227L63.1925 6.36516L62.8996 6.07227H62.4854V7.07227ZM68.9551 13.542H69.9551V13.1278L69.6622 12.8349L68.9551 13.542ZM68.9551 33V34H69.9551V33H68.9551ZM56.6992 17.9121H57.6992V16.9121H56.6992V17.9121ZM56.6992 22.4043V23.4043H57.6992V22.4043H56.6992ZM51.1328 22.4043V21.4043H50.1328V22.4043H51.1328ZM51.1328 26.9453H50.1328V27.9453H51.1328V26.9453ZM56.6992 26.9453H57.6992V25.9453H56.6992V26.9453ZM56.6992 29.8018L57.4036 30.5115L57.6992 30.2182V29.8018H56.6992ZM53.4766 33V34H53.8886L54.181 33.7098L53.4766 33ZM45.2246 33L44.5235 33.7131L44.8154 34H45.2246V33ZM40.8789 28.7275H39.8789V29.1467L40.1778 29.4406L40.8789 28.7275ZM40.8789 22.2334L40.1738 21.5243L39.8789 21.8175V22.2334H40.8789ZM45.2246 17.9121V16.9121H44.812L44.5195 17.203L45.2246 17.9121ZM59.4082 33V13.542H57.4082V33H59.4082ZM58.4082 12.542H43.0518V14.542H58.4082V12.542ZM44.0518 13.542V10.3193H42.0518V13.542H44.0518ZM43.7589 11.0264L47.0059 7.77937L45.5917 6.36516L42.3447 9.61223L43.7589 11.0264ZM46.2988 8.07227H62.4854V6.07227H46.2988V8.07227ZM61.7782 7.77937L68.248 14.2491L69.6622 12.8349L63.1925 6.36516L61.7782 7.77937ZM67.9551 13.542V33H69.9551V13.542H67.9551ZM68.9551 32H58.4082V34H68.9551V32ZM55.6992 17.9121V22.4043H57.6992V17.9121H55.6992ZM56.6992 21.4043H51.1328V23.4043H56.6992V21.4043ZM50.1328 22.4043V26.9453H52.1328V22.4043H50.1328ZM51.1328 27.9453H56.6992V25.9453H51.1328V27.9453ZM55.6992 26.9453V29.8018H57.6992V26.9453H55.6992ZM55.9948 29.092L52.7721 32.2902L54.181 33.7098L57.4036 30.5115L55.9948 29.092ZM53.4766 32H45.2246V34H53.4766V32ZM45.9257 32.2869L41.58 28.0144L40.1778 29.4406L44.5235 33.7131L45.9257 32.2869ZM41.8789 28.7275V22.2334H39.8789V28.7275H41.8789ZM41.584 22.9425L45.9297 18.6212L44.5195 17.203L40.1738 21.5243L41.584 22.9425ZM45.2246 18.9121H56.6992V16.9121H45.2246V18.9121ZM92.791 42.0332V43.0332H93.4831L93.7269 42.3855L92.791 42.0332ZM82.4395 42.0332L81.5033 41.6815L80.9955 43.0332H82.4395V42.0332ZM95.5742 7.07227V6.07227H94.8817L94.6381 6.72057L95.5742 7.07227ZM105.95 7.07227L106.886 7.42453L107.395 6.07227H105.95V7.07227ZM75.457 7.07227V6.07227H73.976L74.5295 7.44596L75.457 7.07227ZM86.2236 7.07227L87.169 6.74621L86.9365 6.07227H86.2236V7.07227ZM89.8613 17.6191L90.8004 17.9628L90.9226 17.6291L90.8067 17.2931L89.8613 17.6191ZM85.0273 30.8271L84.0998 31.2008L85.0721 33.6143L85.9664 31.1708L85.0273 30.8271ZM92.791 41.0332H82.4395V43.0332H92.791V41.0332ZM83.3756 42.3849L96.5103 7.42396L94.6381 6.72057L81.5033 41.6815L83.3756 42.3849ZM95.5742 8.07227H105.95V6.07227H95.5742V8.07227ZM105.014 6.72L91.8551 41.6809L93.7269 42.3855L106.886 7.42453L105.014 6.72ZM75.457 8.07227H86.2236V6.07227H75.457V8.07227ZM85.2783 7.39832L88.916 17.9452L90.8067 17.2931L87.169 6.74621L85.2783 7.39832ZM88.9222 17.2754L84.0883 30.4835L85.9664 31.1708L90.8004 17.9628L88.9222 17.2754ZM85.9549 30.4535L76.3846 6.69858L74.5295 7.44596L84.0998 31.2008L85.9549 30.4535ZM133.424 0.602539V-0.397461H132.424V0.602539H133.424ZM144.312 0.602539H145.312V-0.397461H144.312V0.602539ZM144.312 33V34H145.312V33H144.312ZM133.497 33H132.497V34H133.497V33ZM133.497 19.8408H134.497V18.8408H133.497V19.8408ZM125.489 19.8408H124.489V20.8408H125.489V19.8408ZM125.489 13.3467V12.3467H124.489V13.3467H125.489ZM133.424 13.3467V14.3467H134.424V13.3467H133.424ZM123.78 33V34H124.78V33H123.78ZM112.989 33H111.989V34H112.989V33ZM112.989 0.602539V-0.397461H111.989V0.602539H112.989ZM123.78 0.602539H124.78V-0.397461H123.78V0.602539ZM133.424 1.60254H144.312V-0.397461H133.424V1.60254ZM143.312 0.602539V33H145.312V0.602539H143.312ZM144.312 32H133.497V34H144.312V32ZM134.497 33V19.8408H132.497V33H134.497ZM133.497 18.8408H125.489V20.8408H133.497V18.8408ZM126.489 19.8408V13.3467H124.489V19.8408H126.489ZM125.489 14.3467H133.424V12.3467H125.489V14.3467ZM134.424 13.3467V0.602539H132.424V13.3467H134.424ZM123.78 32H112.989V34H123.78V32ZM113.989 33V0.602539H111.989V33H113.989ZM112.989 1.60254H123.78V-0.397461H112.989V1.60254ZM122.78 0.602539V33H124.78V0.602539H122.78ZM183.09 26.5303L183.797 27.2374L184.09 26.9445V26.5303H183.09ZM176.62 33V34H177.034L177.327 33.7071L176.62 33ZM169.394 33H168.394V34H169.394V33ZM169.394 26.9453V25.9453H168.394V26.9453H169.394ZM172.079 26.9453V27.9453H173.079V26.9453H172.079ZM172.079 13.542H173.079V12.542H172.079V13.542ZM169.394 13.542H168.394V14.542H169.394V13.542ZM169.394 7.07227V6.07227H168.394V7.07227H169.394ZM176.62 7.07227L177.327 6.36516L177.034 6.07227H176.62V7.07227ZM183.09 13.542H184.09V13.1278L183.797 12.8349L183.09 13.542ZM164.877 26.9453H163.877V27.9453H164.877V26.9453ZM167.685 26.9453H168.685V25.9453H167.685V26.9453ZM167.685 33V34H168.685V33H167.685ZM160.434 33L159.726 33.7071L160.019 34H160.434V33ZM153.964 26.5303H152.964V26.9445L153.257 27.2374L153.964 26.5303ZM153.964 13.542L153.257 12.8349L152.964 13.1278V13.542H153.964ZM160.434 7.07227V6.07227H160.019L159.726 6.36516L160.434 7.07227ZM167.685 7.07227H168.685V6.07227H167.685V7.07227ZM167.685 13.542V14.542H168.685V13.542H167.685ZM164.877 13.542V12.542H163.877V13.542H164.877ZM182.383 25.8232L175.913 32.2929L177.327 33.7071L183.797 27.2374L182.383 25.8232ZM176.62 32H169.394V34H176.62V32ZM170.394 33V26.9453H168.394V33H170.394ZM169.394 27.9453H172.079V25.9453H169.394V27.9453ZM173.079 26.9453V13.542H171.079V26.9453H173.079ZM172.079 12.542H169.394V14.542H172.079V12.542ZM170.394 13.542V7.07227H168.394V13.542H170.394ZM169.394 8.07227H176.62V6.07227H169.394V8.07227ZM175.913 7.77937L182.383 14.2491L183.797 12.8349L177.327 6.36516L175.913 7.77937ZM182.09 13.542V26.5303H184.09V13.542H182.09ZM164.877 27.9453H167.685V25.9453H164.877V27.9453ZM166.685 26.9453V33H168.685V26.9453H166.685ZM167.685 32H160.434V34H167.685V32ZM161.141 32.2929L154.671 25.8232L153.257 27.2374L159.726 33.7071L161.141 32.2929ZM154.964 26.5303V13.542H152.964V26.5303H154.964ZM154.671 14.2491L161.141 7.77937L159.726 6.36516L153.257 12.8349L154.671 14.2491ZM160.434 8.07227H167.685V6.07227H160.434V8.07227ZM166.685 7.07227V13.542H168.685V7.07227H166.685ZM167.685 12.542H164.877V14.542H167.685V12.542ZM163.877 13.542V26.9453H165.877V13.542H163.877Z" fill="#EEFF03"/>
</svg>
